<?xml version="1.0" standalone="no"?>
<!DOCTYPE svg PUBLIC "-//W3C//DTD SVG 20010904//EN"
 "http://www.w3.org/TR/2001/REC-SVG-20010904/DTD/svg10.dtd">
<svg version="1.0" xmlns="http://www.w3.org/2000/svg"
 width="202.000000pt" height="203.000000pt" viewBox="0 0 202.000000 203.000000"
 preserveAspectRatio="xMidYMid meet">

<g transform="translate(0.000000,203.000000) scale(0.100000,-0.100000)"
fill="#000000" stroke="none">
<path d="M284 1904 c-40 -9 -51 -37 -73 -184 -13 -80 -27 -167 -32 -193 -12
-61 -12 -133 0 -194 5 -26 20 -113 32 -192 24 -157 34 -175 96 -187 124 -23
285 58 446 224 61 64 67 74 67 112 0 30 -4 41 -12 37 -43 -15 -341 -97 -357
-97 -21 0 -33 21 -22 39 4 6 88 34 187 62 98 28 183 54 188 59 11 11 -3 70
-17 70 -25 0 -343 94 -355 105 -14 13 -6 45 12 45 6 0 83 -20 170 -45 87 -25
163 -45 167 -45 18 0 8 44 -23 104 -45 86 -165 204 -249 245 -64 31 -168 48
-225 35z"/>
<path d="M1585 1893 c-117 -42 -229 -136 -299 -252 -35 -58 -54 -121 -37 -121
11 0 64 14 225 60 110 31 136 32 136 7 0 -29 -31 -40 -310 -116 -63 -17 -65
-18 -68 -52 l-3 -34 158 -44 c202 -56 223 -65 223 -90 0 -30 -21 -27 -215 28
-93 27 -173 46 -177 44 -5 -2 -8 -19 -8 -36 0 -25 13 -45 58 -93 135 -143 273
-229 385 -241 56 -6 117 8 136 31 6 7 27 112 47 233 l35 220 -36 214 c-28 166
-40 218 -55 234 -28 27 -128 31 -195 8z"/>
<path d="M861 1634 c-25 -32 -24 -21 -7 -142 8 -53 17 -130 21 -169 5 -49 13
-81 27 -98 18 -24 25 -25 118 -25 92 0 99 1 113 24 15 23 57 294 57 368 0 61
-18 68 -173 68 -135 0 -136 0 -156 -26z"/>
<path d="M270 813 c-25 -9 -40 -25 -34 -35 7 -11 7 -230 0 -467 -4 -142 1
-174 31 -185 10 -4 157 -9 328 -11 264 -4 313 -2 330 11 19 14 20 27 20 344 0
180 -4 332 -8 337 -9 9 -643 15 -667 6z m631 -45 c13 -19 11 -575 -1 -599 -10
-18 -24 -19 -309 -19 -241 0 -301 3 -310 14 -8 9 -11 100 -9 312 l3 299 115 5
c214 10 502 3 511 -12z"/>
<path d="M583 567 c-34 -77 -31 -106 8 -71 l22 19 -6 -38 c-9 -56 -40 -95 -72
-89 -20 3 -23 7 -14 18 9 11 8 19 -6 34 -9 10 -14 24 -10 29 8 13 -3 51 -15
51 -4 0 -10 -9 -13 -19 -7 -28 -59 -24 -55 4 2 15 14 21 47 27 25 4 49 12 54
17 18 18 -24 25 -67 12 -23 -7 -54 -15 -69 -19 -33 -8 -37 -26 -7 -30 11 -2
20 -6 20 -10 -1 -4 -7 -47 -15 -97 -8 -57 -10 -94 -4 -100 6 -6 12 -2 15 12 7
26 14 29 87 38 60 8 74 1 32 -15 -28 -10 -34 -30 -10 -30 40 0 85 30 105 70
l21 42 52 -57 c43 -47 60 -58 97 -65 25 -5 47 -7 49 -4 8 8 -25 37 -70 59 -26
14 -56 36 -67 50 l-21 26 23 34 c38 56 50 93 36 110 -10 13 -17 12 -52 -6 -46
-24 -54 -20 -41 18 6 15 8 34 6 41 -10 28 -30 8 -60 -61z m117 -35 c0 -13 -30
-52 -41 -52 -16 0 -10 39 9 49 21 13 32 14 32 3z m-250 -75 c0 -8 -9 -22 -20
-32 -17 -16 -20 -16 -20 -2 0 26 11 47 26 47 8 0 14 -6 14 -13z m43 -47 c4
-16 -2 -22 -31 -30 -56 -15 -59 -12 -22 20 42 35 46 36 53 10z"/>
<path d="M1113 810 c-21 -9 -21 -11 -22 -339 -2 -320 -1 -330 18 -341 13 -6
139 -12 332 -15 268 -4 316 -3 336 10 l23 15 0 330 0 330 -22 9 c-30 11 -637
12 -665 1z m636 -34 c16 -10 15 -598 -1 -614 -9 -9 -91 -12 -310 -12 -284 0
-298 1 -308 19 -12 23 -14 579 -2 598 5 8 42 13 102 15 162 5 507 1 519 -6z"/>
<path d="M1497 663 c-32 -4 -36 -7 -26 -19 17 -20 5 -115 -20 -168 -12 -23
-21 -48 -21 -54 0 -18 -31 -14 -47 6 -13 15 -14 9 -9 -49 l5 -66 -61 -11 c-63
-12 -76 -17 -64 -29 3 -4 30 -1 59 7 31 8 108 14 190 14 75 1 137 4 137 7 0 9
-49 29 -71 29 -16 0 -19 5 -15 20 3 11 8 29 11 39 3 11 -2 26 -11 36 -17 17
-30 16 -94 -2 -24 -6 -24 -6 -8 11 10 9 22 34 28 55 8 31 16 40 38 44 25 5 41
-5 42 -25 0 -5 -12 -8 -26 -8 l-26 0 29 -34 c15 -19 33 -35 38 -35 6 -1 10 43
10 111 0 112 -5 129 -35 126 -8 -1 -32 -3 -53 -5z m51 -30 c-4 -20 -39 -25
-45 -6 -4 10 11 18 40 22 5 0 7 -7 5 -16z m2 -57 c0 -7 -11 -16 -25 -18 -24
-5 -34 10 -18 25 12 12 43 7 43 -7z m-30 -198 c-1 -28 -2 -30 -11 -15 -6 10
-8 25 -5 33 9 24 16 16 16 -18z m-40 -18 c0 -22 -4 -40 -8 -40 -5 0 -8 17 -6
38 3 45 3 42 9 42 3 0 5 -18 5 -40z m-40 -5 c0 -24 -5 -35 -15 -35 -10 0 -15
11 -15 35 0 24 5 35 15 35 10 0 15 -11 15 -35z"/>
<path d="M1354 643 c-19 -4 -22 -13 -27 -78 -6 -77 -1 -115 14 -115 5 0 9 9 9
20 0 16 37 49 44 38 1 -2 7 -16 14 -31 20 -47 29 -22 29 78 l-1 95 -30 -1
c-17 -1 -40 -4 -52 -6z m66 -38 c0 -21 -5 -25 -30 -25 -23 0 -30 5 -30 19 0
18 14 27 48 30 6 0 12 -10 12 -24z m-2 -57 c-2 -17 -11 -24 -30 -26 -24 -3
-28 0 -28 22 0 22 4 26 31 26 26 0 30 -3 27 -22z"/>
</g>
</svg>
